<?xml version="1.0" standalone="no"?>
<!DOCTYPE svg PUBLIC "-//W3C//DTD SVG 1.1//EN" "http://www.w3.org/Graphics/SVG/1.1/DTD/svg11.dtd" >
<svg xmlns="http://www.w3.org/2000/svg">
<metadata></metadata>
<defs>
<font id="genevanormal" horiz-adv-x="952" >
<font-face units-per-em="2048" ascent="1638" descent="-410" />
<missing-glyph horiz-adv-x="500" />
<glyph horiz-adv-x="0" />
<glyph unicode="&#xd;" horiz-adv-x="0" />
<glyph unicode=" " />
<glyph unicode="!" horiz-adv-x="635" d="M196 4v209h195v-209h-195zM196 838v518h195v-518l-49 -447h-96z" />
<glyph unicode="&#x22;" horiz-adv-x="844" d="M146 856v106q63 12 79.5 57t16.5 111v13h-96v213h192v-238q0 -89 -35 -162.5t-157 -99.5zM463 856v106q64 12 82 58t18 110v13h-100v213h197v-226q0 -93 -35 -169t-162 -105z" />
<glyph unicode="#" horiz-adv-x="1945" d="M217 217l33 166h326l63 346h-321l32 164h326l62 325h163l-63 -325h350l59 325h166l-65 -325h325l-27 -164h-327l-72 -346h326l-33 -166h-322l-63 -317h-161l60 317h-346l-69 -317h-155l58 317h-325zM738 383h348l69 346h-350z" />
<glyph unicode="$" horiz-adv-x="1222" d="M100 402h174q10 -156 92 -223t189 -71v516q-133 28 -223.5 70t-142.5 119t-52 201l-4 4q0 131 63.5 211.5t155.5 113.5t182 33q2 0 9 2t8 2v130h101v-130q131 0 218 -51t127.5 -130.5t40.5 -164.5v-8h-166q-4 71 -34 121.5t-79 76.5t-107 28v-480q229 -40 329.5 -138 t100.5 -259q0 -148 -70 -234.5t-166 -120.5t-194 -36v-160h-101v160q-142 4 -239.5 50t-150.5 138t-61 230zM305 1022q0 -86 53 -144.5t197 -89.5v464q-81 0 -165.5 -43t-84.5 -187zM652 108q106 0 182 70t76 192q-10 204 -258 238v-500z" />
<glyph unicode="%" horiz-adv-x="1777" d="M84 981q0 107 36 196t109 142t177 53q146 0 232.5 -108t86.5 -283q0 -118 -40 -204.5t-113 -133.5q-72 -47 -166 -47q-100 0 -173.5 50.5t-111 138.5t-37.5 196zM209 981q0 -136 53.5 -208.5t143.5 -72.5q88 0 141 73t53 208q0 126 -50 207q-50 80 -144 80t-145.5 -80.5 t-51.5 -206.5zM362 4l193 297l684 1055h141l-196 -302l-680 -1050h-142zM1010 375q0 104 35 190.5t107 138.5t175 52q150 0 236.5 -105t86.5 -276q0 -180 -88 -281.5t-235 -101.5q-102 0 -173.5 49.5t-107.5 136.5t-36 197zM1130 375q0 -136 55 -211.5t142 -75.5t141 75.5 t54 211.5q0 124 -51 202.5t-144 78.5q-94 0 -145.5 -78.5t-51.5 -202.5z" />
<glyph unicode="&#x26;" horiz-adv-x="1349" d="M129 362q0 165 85.5 255.5t248.5 162.5q-66 89 -97.5 151.5t-31.5 143.5q0 86 38.5 149.5t106 97.5t152.5 34h12q94 -2 161.5 -38t101.5 -98t36 -138v-7q0 -122 -81.5 -205.5t-172.5 -125.5l297 -348q43 68 57 196h152q-20 -192 -112 -318l233 -270h-205l-133 154 q-145 -182 -405 -182h-17q-140 0 -235.5 53t-141.5 141t-49 192zM301 375l4 -9q3 -106 77 -178t198 -76q2 0 6 -1t6 -3q92 0 173.5 44t123.5 114l-334 410q-129 -54 -191.5 -134t-62.5 -167zM492 1080q0 -94 112 -230q92 32 136 93t44 124v19q-3 66 -40 103.5t-101 37.5 q-60 0 -105.5 -36.5t-45.5 -110.5z" />
<glyph unicode="'" horiz-adv-x="635" d="M196 856v106q61 12 79 58t18 110v13h-97v213h195v-226q0 -93 -34 -169q-35 -76 -161 -105z" />
<glyph unicode="(" horiz-adv-x="715" d="M116 500q0 142 28.5 274.5t90 271t163.5 310.5h128q-77 -154 -126.5 -288t-72.5 -238t-30.5 -181t-7.5 -149q-1 -388 237 -850h-128q-102 170 -163.5 307t-90 269t-28.5 274z" />
<glyph unicode=")" horiz-adv-x="715" d="M137 -350q78 150 128 282t73.5 236t30 179t6.5 153v30q0 358 -238 826h129q105 -172 166.5 -310t89.5 -272q29 -132 29 -274t-28.5 -274t-90.5 -269t-166 -307h-129z" />
<glyph unicode="*" horiz-adv-x="932" d="M121 1122l29 96l246 -84v258h96v-258l241 84l31 -96l-242 -76l154 -204l-80 -62l-154 214l-158 -214l-75 62l153 204z" />
<glyph unicode="+" horiz-adv-x="1390" d="M88 624v105h524v523h105v-523h522v-105h-522v-524h-105v524h-524z" />
<glyph unicode="," horiz-adv-x="635" d="M196 4v209h195v-209q0 -101 -20.5 -153t-57.5 -75.5t-117 -53.5v102q38 17 58 34.5t29.5 50.5t9.5 95h-97z" />
<glyph unicode="-" horiz-adv-x="844" d="M146 434v166h514v-166h-514z" />
<glyph unicode="." horiz-adv-x="635" d="M196 4v209h195v-209h-195z" />
<glyph unicode="/" horiz-adv-x="884" d="M4 -350l262 651l426 1055h142l-266 -656l-426 -1050h-138z" />
<glyph unicode="0" horiz-adv-x="1140" d="M72 680q0 96 14 204.5t61 225t145 195.5t255 79t256 -79t145.5 -195t60 -225t13.5 -205t-13.5 -204.5t-60 -224.5t-145 -195.5t-256.5 -79.5q-157 0 -255 79t-145 196t-61 225t-14 204zM250 680q0 -564 297 -564q295 0 295 564q0 137 -20 258.5t-86 211t-189 89.5 q-297 0 -297 -559z" />
<glyph unicode="1" horiz-adv-x="1140" d="M234 1022v92q2 0 10 -2t10 -2q98 0 174.5 34t120 91t51.5 121h133v-302l-4 -1050h-187v1018h-308z" />
<glyph unicode="2" horiz-adv-x="1140" d="M92 33q0 133 55 231t148 172t260 180q98 60 162 113q117 103 117 237v15q-2 158 -95.5 206t-179.5 48q-104 0 -169 -45.5t-92.5 -112t-27.5 -131.5q0 -4 2 -11t2 -9h-174q0 2 -2 8t-2 8q0 92 38 191t143 173t291 74h4q190 0 289 -79.5t126 -168t27 -147.5 q0 -154 -74 -253q-72 -99 -196 -177q-94 -69 -164 -109q-152 -100 -212 -169t-71 -127h717v-146h-918q0 6 -2 15t-2 14z" />
<glyph unicode="3" horiz-adv-x="1140" d="M64 414h174q8 -126 61 -192t114 -83.5t113 -17.5l4 -5q186 0 247 94t61 181q0 223 -250 244h-142v145q6 0 14 -2t11 -2q321 0 321 234l4 8q0 98 -69 157.5t-189 59.5h-8q-100 0 -184 -57.5t-84 -227.5l4 -8h-170q2 274 144 356q140 82 294 82q188 0 283.5 -71.5t120 -150 t24.5 -132.5v-12q0 -122 -67 -195t-151 -94v-8q25 0 87.5 -28t118.5 -102.5t56 -203.5v-4q-4 -365 -468 -399q-452 0 -474 434z" />
<glyph unicode="4" horiz-adv-x="1140" d="M37 318v149l635 889h174v-893h213v-145h-213v-314h-170v314h-639zM209 463h467v655z" />
<glyph unicode="5" horiz-adv-x="1140" d="M76 350h178q12 -88 75 -156.5t201 -68.5q316 -1 320 313q0 140 -60 211t-125 89t-114 18q-88 0 -158.5 -31t-110.5 -86h-170l97 717h729v-146h-596l-58 -409q32 30 106 65t186 35h16q134 0 230 -60.5t146 -164.5t50 -230v-8q-2 -199 -94 -300.5t-198 -127.5t-196 -26 q-186 2 -286 73t-132 150t-36 143z" />
<glyph unicode="6" horiz-adv-x="1140" d="M72 664q0 236 53 383t134.5 217.5t162 91t162.5 20.5q130 0 253 -61t169 -256h-164q-46 172 -258 172q-60 -2 -113 -17.5t-102 -63.5t-82.5 -146t-40.5 -256h8q114 146 334 145q125 0 224 -56t154 -158q56 -103 56 -233v-8q-2 -198 -94 -299t-193.5 -128t-175.5 -27h-25 q-90 0 -167.5 23t-145 93t-108.5 208t-41 356zM262 450q0 -2 2 -8t2 -8q4 -130 76 -221.5t221 -91.5q90 0 154.5 39.5t98.5 109.5t34 156v12q-3 140 -80.5 225t-210.5 85q-134 0 -215.5 -85t-81.5 -213z" />
<glyph unicode="7" horiz-adv-x="1140" d="M53 1206v150h989v-125q-150 -166 -252 -348t-158 -348t-80 -295.5t-34 -235.5h-192q17 146 53.5 290t100.5 299t158 309t222 304h-807z" />
<glyph unicode="8" horiz-adv-x="1140" d="M88 383q2 151 77.5 237t172.5 118q-90 30 -143 108t-53 188q0 48 23 123.5t113 147t269 71.5q135 0 226 -46t134 -124t43 -172q0 -106 -52 -185t-142 -111q61 -18 116.5 -62t92.5 -116t37 -169v-8q0 -87 -35 -175.5t-136 -155t-284 -68.5q-164 0 -267.5 58t-147.5 148 t-44 193zM266 396q4 -143 87.5 -207t193.5 -64q112 0 196 65q85 66 87 206q0 112 -71 186t-212 74q-140 0 -210.5 -73t-70.5 -187zM301 1014q0 -102 69.5 -160t176.5 -58q106 0 171.5 57.5t65.5 160.5v12q-4 89 -50 134.5t-98 58t-89 12.5q-146 0 -194 -72t-48 -133z" />
<glyph unicode="9" horiz-adv-x="1140" d="M68 901l4 13q0 136 52.5 241t157.5 163q104 58 252 58q98 0 181 -23t152 -91t112 -202t43 -343v-25q-4 -298 -86 -455.5t-192 -205t-232 -47.5q-130 0 -253 59t-171 250h166q4 -26 26.5 -66.5t76 -75.5t139.5 -35q2 0 8 2.5t8 2.5q320 21 338 483h-8q-117 -145 -334 -145 q-125 0 -226 55t-157.5 156t-56.5 231zM242 922l4 -8q3 -138 79.5 -224t204.5 -86q93 0 160.5 38.5t103.5 105t36 149.5v21q-2 82 -34 153t-98 115.5t-168 44.5q-89 0 -154.5 -40.5t-99.5 -111.5t-34 -157z" />
<glyph unicode=":" horiz-adv-x="635" d="M196 4v209h195v-209h-195zM196 772v209h195v-209h-195z" />
<glyph unicode=";" horiz-adv-x="635" d="M196 4v209h195v-217q0 -94 -34 -170q-35 -76 -161 -104v102q61 18 79 63t18 109v8h-97zM196 772v209h195v-209h-195z" />
<glyph unicode="&#x3c;" horiz-adv-x="1310" d="M108 604v121l930 535l68 -122l-824 -474l824 -476l-68 -120z" />
<glyph unicode="=" horiz-adv-x="1390" d="M88 430v104h1151v-104h-1151zM88 821v101h1151v-101h-1151z" />
<glyph unicode="&#x3e;" horiz-adv-x="1310" d="M154 188l831 476l-831 474l72 122l929 -535v-121l-929 -536z" />
<glyph unicode="?" horiz-adv-x="1102" d="M88 954q0 166 65 263t163 134t214 37h8q127 0 221 -45.5t143 -125.5q48 -81 48 -179v-12q0 -104 -52 -181.5t-146 -152.5q-22 -20 -48 -43t-36 -33q-84 -84 -84 -198q0 -5 2 -11.5t2 -10.5h-146q0 2 -2 14t-2 16q0 110 38 180t108 132q88 72 108 96q88 84 88 196 q0 54 -25.5 104t-82 83t-142.5 35q-62 0 -123 -23t-105 -88t-44 -179q0 -2 2 -8t2 -8h-170zM418 4v209h190v-209h-190z" />
<glyph unicode="@" horiz-adv-x="1945" d="M100 551v12q2 184 67 339.5t180 269.5t269 175.5t330 61.5q222 0 385 -74.5t263 -196.5t146 -264t46 -282v-29q-4 -141 -59 -246t-146 -161t-205 -56q-150 0 -188 109h-12q-22 -44 -86 -85q-64 -40 -180 -40q-2 0 -6.5 2t-6.5 2q-66 0 -152.5 27t-162.5 127 q-76 98 -78 292q0 122 47 223t133 161q84 60 196 63h13q174 0 258 -125h8l-8 41v53h185l-5 -571q0 -78 21 -105.5t65 -27.5q70 0 122.5 43.5t80.5 116t30 157.5v9q0 150 -50 279t-144 226t-224 150t-286 53q-190 0 -352 -94t-257 -258t-95 -360l4 -5q0 -230 99 -390.5 t256.5 -239.5t332.5 -79h12q202 5 354 105l68 -121q-104 -60 -199.5 -85t-222.5 -27h-28q-176 0 -327 58t-261 168t-170 262.5t-60 336.5zM692 542q0 -2 2 -6t2 -6q0 -132 56 -214t166 -82q98 2 148 61t63.5 125t13.5 110q0 62 -15.5 131t-65.5 122q-48 53 -140 55 q-72 0 -124 -38t-79 -105t-27 -153z" />
<glyph unicode="A" horiz-adv-x="1270" d="M4 4l112 297l396 1055h200l114 -302l396 -1050h-196l-133 346h-575l-126 -346h-188zM370 508h476l-238 664z" />
<glyph unicode="B" horiz-adv-x="1140" d="M24 4v1352h592q230 0 318 -102t88 -232v-12q-3 -106 -64.5 -186t-165.5 -103v-4q101 -15 195.5 -90.5t94.5 -247.5v-9q0 -164 -84 -245t-186 -101t-216 -20h-572zM205 154h375q126 0 219.5 42t93.5 200v2q0 128 -85 177q-84 49 -228 49h-375v-470zM205 780h363 q258 0 266 214v8q0 78 -57 139t-201 61h-371v-422z" />
<glyph unicode="C" horiz-adv-x="1290" d="M4 676q0 243 79 393.5t191 219t206 86t167 17.5h9q202 0 324.5 -72t173.5 -175q50 -103 56 -207h-184q-8 118 -94.5 209.5t-284.5 91.5q-72 0 -171 -31.5t-189.5 -152.5t-90.5 -359q0 -4 2 -16t2 -16q4 -158 60 -284t158 -197q104 -71 242 -71q178 3 273 101.5t109 232.5 h189q-13 -109 -68 -215.5t-180 -184t-327 -79.5q-201 0 -346.5 82.5t-221.5 236.5t-80 366q0 2 -2 12t-2 12z" />
<glyph unicode="D" horiz-adv-x="1186" d="M4 4v1352h496q88 0 182 -16t201.5 -79.5t181 -204.5t73.5 -372q0 -300 -110 -451t-260 -190t-342 -39h-422zM184 154h250q98 0 183 16.5t160 69t121 161t48 279.5q0 212 -101 367t-361 155h-300v-1048z" />
<glyph unicode="E" horiz-adv-x="1036" d="M12 4v1352h961v-158h-781v-422h709v-156h-709v-462h802v-154h-982z" />
<glyph unicode="F" d="M4 4v1352h906v-158h-726v-438h633v-152h-633v-604h-180z" />
<glyph unicode="G" horiz-adv-x="1290" d="M8 692q0 244 81 393t195 216t210 83q96 17 174 17q197 -2 316.5 -74t172.5 -171.5t65 -201.5h-184q-7 60 -36.5 124t-111.5 116q-80 51 -222 53q-80 0 -182.5 -30t-196 -151.5t-93.5 -365.5q0 -2 2 -8t2 -8q2 -104 25 -200t76 -182t143 -138t220 -52q231 2 316.5 137 t99.5 306h-392v153h555v-704h-141v217h-8q-72 -152 -209 -203t-242 -51h-19q-138 0 -251.5 48t-195.5 141.5t-125.5 229.5t-43.5 306z" />
<glyph unicode="H" horiz-adv-x="1102" d="M4 4v1352h180v-568h680v568h182v-1352h-182v631h-680v-631h-180z" />
<glyph unicode="I" horiz-adv-x="256" d="M24 4v1352h181v-1352h-181z" />
<glyph unicode="J" horiz-adv-x="907" d="M20 430q0 2 2 10t2 10h185q0 -2 -2 -10t-2 -10q0 -168 57.5 -241t175.5 -73q126 0 178 77t52 257v906h182v-889q0 -164 -34 -265.5t-90 -149.5t-126 -63t-162 -17q-106 0 -195 29t-156 130.5t-67 298.5z" />
<glyph unicode="K" horiz-adv-x="1181" d="M4 4v1352h176v-672l674 672h240l-564 -560l600 -792h-237l-495 672l-218 -213v-459h-176z" />
<glyph unicode="L" horiz-adv-x="932" d="M12 4v1352h180v-1198h688v-154h-868z" />
<glyph unicode="M" horiz-adv-x="1415" d="M12 4v1352h254l23 -64l403 -1054l25 63l397 1055h258v-1352h-170v1082l4 48h-4l-30 -80l-412 -1050h-144l-32 76l-408 1054h-6l6 -48v-1082h-164z" />
<glyph unicode="N" horiz-adv-x="1140" d="M4 4v1352h188l13 -20l709 -1054v1074h172v-1352h-189l-17 16l-704 1055v-1071h-172z" />
<glyph unicode="O" horiz-adv-x="1349" d="M4 668l4 12q2 150 40 278.5t117 227.5t202 154.5t289 55.5q160 0 282 -53t203 -150t121 -227t42 -286v-12q0 -212 -74 -371t-220.5 -244.5t-353.5 -85.5q-211 0 -358.5 89t-220.5 247.5t-73 364.5zM196 664q0 -142 44 -267t147 -205t269 -80q280 0 367 187t87 381 q-2 162 -44 273.5t-109 175t-144 89t-157 25.5q-106 0 -207 -47t-173 -172.5t-76 -343.5q0 -2 -2 -8t-2 -8z" />
<glyph unicode="P" horiz-adv-x="1077" d="M12 4v1352h547q454 0 463 -390v-12q0 -412 -480 -412h-350v-538h-180zM192 696h330q97 0 164.5 23t105.5 77.5t38 145.5v20q-3 132 -81.5 186t-226.5 54h-330v-506z" />
<glyph unicode="Q" horiz-adv-x="1349" d="M4 668l4 12q2 150 40 278.5t117 227.5t202 154.5t289 55.5q207 0 352.5 -89t219.5 -250.5t76 -376.5v-16q0 -153 -37.5 -269t-79.5 -177.5t-77 -96.5l154 -162l-105 -92l-161 170q-118 -70 -342 -70q-206 0 -354 85.5t-223 244.5t-75 371zM196 664q0 -142 44 -267 t147 -205t269 -80q146 0 224 58l-151 164l105 92l151 -172q44 47 84.5 142.5t40.5 259.5v24q-2 217 -73 343t-173 173t-208 47t-207 -47t-173 -172.5t-76 -343.5q0 -2 -2 -8t-2 -8z" />
<glyph unicode="R" horiz-adv-x="1136" d="M12 4v1352h640q100 0 192 -32t153.5 -115t61.5 -224q0 -248 -238 -338q96 -26 146.5 -94.5t50.5 -226.5q0 -3 -2 -16.5t-2 -20.5q0 -262 66 -285h-191q-22 11 -32.5 36.5t-15.5 69t-7 94t-4 122.5q0 250 -214 250h-424v-572h-180zM192 729h424q102 0 177 57t75 195 q0 221 -284 221h-392v-473z" />
<glyph unicode="S" horiz-adv-x="1161" d="M16 430h184q0 -77 35.5 -147t122 -117.5t226.5 -49.5q198 0 268 78t70 172q0 110 -80.5 160.5t-198.5 77.5q-24 5 -76.5 14.5t-107.5 20.5q-130 32 -210.5 67.5t-133.5 107.5t-55 196q0 102 50 189.5t166 142t300 54.5h8q186 0 293.5 -68t146.5 -156q40 -88 43 -166h-174 q-6 53 -33.5 105t-98.5 92t-193 40q-102 0 -175 -30.5t-110 -79.5t-37 -103q0 -2 2 -6t2 -6q2 -78 50 -123t110 -63q62 -20 182 -44l100 -20q56 -10 80 -16q80 -18 156 -59t129 -120t53 -198v-5q-2 -137 -62.5 -219.5t-148 -120.5t-168.5 -48t-159 -10q-66 0 -149 12 t-177.5 56.5t-161 140.5t-68.5 249z" />
<glyph unicode="T" horiz-adv-x="1120" d="M20 1198v158h1060v-158h-445v-1194h-181v1194h-434z" />
<glyph unicode="U" horiz-adv-x="1140" d="M12 526v830h180v-805q0 -130 28.5 -222.5t107 -148t223.5 -55.5l8 -4q139 0 216 60.5t103.5 154.5t26.5 215v805h181v-830q0 -217 -101 -383.5t-434 -166.5q-232 0 -351.5 87t-153.5 205t-34 258z" />
<glyph unicode="V" horiz-adv-x="1222" d="M12 1356h193l37 -113l346 -1055l38 113l342 1055h208l-109 -302l-367 -1050h-221l-104 297z" />
<glyph unicode="W" horiz-adv-x="1798" d="M12 1356h197l21 -84l262 -1055l22 84l258 1055h209l25 -84l258 -1055l24 84l260 1055h203l-82 -302l-277 -1050h-233l-21 84l-258 1050l-24 -84l-260 -1050h-230l-82 297z" />
<glyph unicode="X" horiz-adv-x="1222" d="M4 4l467 692l-443 660h226l338 -535l342 535h213l-443 -656l472 -696h-230l-358 559l-354 -559h-230z" />
<glyph unicode="Y" horiz-adv-x="1270" d="M24 1356h214l374 -627l373 627h221l-502 -793v-559h-182v559z" />
<glyph unicode="Z" horiz-adv-x="1102" d="M4 4v166l784 1028h-743v158h969v-146l-801 -1052h837v-154h-1046z" />
<glyph unicode="[" horiz-adv-x="485" d="M16 -350v1706h406v-121h-234v-1465h234v-120h-406z" />
<glyph unicode="\" horiz-adv-x="973" d="M4 1388l112 60l242 -442l564 -1051l-117 -55l-233 434z" />
<glyph unicode="]" horiz-adv-x="485" d="M20 -230h242v1465h-242v121h414v-1706h-414v120z" />
<glyph unicode="^" horiz-adv-x="803" d="M4 1090l196 266h355l201 -266h-144l-233 198l-229 -198h-146z" />
<glyph unicode="_" horiz-adv-x="1011" d="M8 -196h958v-154h-958v154z" />
<glyph unicode="`" horiz-adv-x="88" />
<glyph unicode="a" horiz-adv-x="1011" d="M20 258q0 117 64 181.5t166 90.5q102 28 254 42q31 0 96 8q60 12 76 36q16 22 16 92q0 184 -217 185q-150 0 -204 -57.5t-54 -123.5q0 -2 2 -8t2 -8h-172q0 48 18.5 102t65.5 104.5t132 83t214 32.5q385 0 385 -326v-458q0 -6 -2 -18t-2 -16q0 -79 64 -79h2q2 0 15 2 t17 2v-121q-7 0 -35.5 -2t-42.5 -2h-20q-58 0 -107 29t-49 104q-68 -97 -170 -129t-168 -32q-125 0 -202 39t-110.5 103t-33.5 144zM192 262q0 -72 50 -121t145 -49q108 0 176.5 48t98.5 123t30 155v90q-16 -21 -57 -33q-37 -8 -72 -8q-56 -7 -131 -17t-126 -28.5t-82.5 -57 t-31.5 -102.5z" />
<glyph unicode="b" horiz-adv-x="993" d="M4 4v1352h172v-500q106 166 324 166q194 0 293 -103t124 -219t25 -208q0 -173 -58 -291.5t-159 -176t-229 -57.5q-207 0 -326 166h-4l4 -129h-166zM162 479q0 -186 82 -290.5t215 -104.5h8q72 0 138.5 37t110.5 126t44 232v13q0 202 -77 303.5t-212 101.5 q-84 0 -151.5 -39.5t-109.5 -127.5t-44 -230q0 -4 -2 -11.5t-2 -9.5z" />
<glyph unicode="c" horiz-adv-x="973" d="M12 504q0 126 32 222.5t94 162t148 97.5q88 32 198 32q122 0 206.5 -40t131.5 -97t67.5 -112.5t20.5 -88.5h-162q0 32 -25 82t-84 90.5t-155 40.5q-134 0 -215 -96.5t-81 -292.5q0 -128 39 -221.5t108 -142t157 -48.5q92 0 149.5 42t84 101.5t34.5 118.5h162 q-8 -74 -48 -160.5t-133 -154t-249 -67.5q-235 0 -357.5 137t-122.5 395z" />
<glyph unicode="d" horiz-adv-x="993" d="M12 492q2 228 83 345t175 149q92 32 184 36q225 0 322 -166v500h170v-1352h-162l4 129h-4q-96 -166 -325 -166q-200 2 -299.5 108t-123.5 219q-24 114 -24 198zM188 492q0 -252 102 -330t206 -78q132 0 212 104t80 291v21q-2 140 -43.5 229t-110 128.5t-150.5 39.5 q-120 0 -207 -86.5t-89 -318.5z" />
<glyph unicode="e" horiz-adv-x="1011" d="M12 488q0 195 70 313.5t179 167.5t235 49q149 0 243.5 -51t141.5 -133t62 -175t15 -205h-766q0 -82 30 -165t101 -140t185 -57q95 0 155.5 38.5t86.5 85t26 68.5h182q0 -44 -48.5 -120t-149 -134t-248.5 -58q-115 0 -207 32t-157.5 97t-100.5 162t-35 225zM192 572h584 q0 86 -31 159t-93 117.5t-152 44.5q-106 0 -176 -48.5t-101 -121.5t-31 -151z" />
<glyph unicode="f" horiz-adv-x="635" d="M20 860v121h180v133q0 128 63 189t196 61q61 0 125 -8v-125q-8 0 -26 2q-20 2 -28 2h-63q-97 -13 -97 -137v-117h214v-121h-214v-856h-170v856h-180z" />
<glyph unicode="g" horiz-adv-x="1011" d="M16 522q0 150 51.5 263t149 175t229.5 62q236 0 338 -172h8l-4 131h166v-901q0 -102 -26 -196.5t-124 -170.5q-99 -75 -292 -79h-37q-130 0 -243 55t-148 211h170q22 -76 88 -111t150 -35h20q268 4 268 304v104q-26 -48 -103 -103t-210 -55q-204 3 -323.5 133.5 t-123.5 366.5q0 2 -2 9t-2 9zM192 518q0 -2 2 -5t2 -5q0 -140 45.5 -227t112 -123.5t138.5 -36.5l12 4q70 0 133 29.5t107 115t44 238.5q0 224 -92 306q-90 83 -208 83q-86 0 -154 -45.5t-105 -131.5t-37 -202z" />
<glyph unicode="h" horiz-adv-x="907" d="M24 4v1352h172v-510q116 168 334 168q326 0 326 -362v-648h-172v600q0 118 -35.5 197t-169.5 79q-98 -2 -156.5 -41t-85.5 -95t-34 -108t-7 -98v-534h-172z" />
<glyph unicode="i" horiz-adv-x="256" d="M12 1180v176h184v-176h-184zM16 4v977h176v-977h-176z" />
<glyph unicode="j" horiz-adv-x="426" d="M24 -226h29q72 0 101 36q30 36 30 130v1041h178v-1065q0 -132 -49.5 -202t-183.5 -72q-89 0 -105 8v124zM180 1180v176h186v-176h-186z" />
<glyph unicode="k" d="M12 4v1352h172v-842l472 467h200l-385 -377l426 -600h-201l-342 496l-170 -162v-334h-172z" />
<glyph unicode="l" horiz-adv-x="256" d="M16 4v1352h176v-1352h-176z" />
<glyph unicode="m" horiz-adv-x="1478" d="M20 4v977h164l-4 -143h8q108 172 308 172q139 0 203.5 -69.5t76.5 -131.5q115 201 342 201q177 -6 245.5 -105t68.5 -270v-631h-168v616q0 100 -34.5 176t-154.5 84h-21q-54 0 -109 -26.5t-93.5 -92t-38.5 -173.5v-584h-170l-4 616q-1 256 -185 260h-16q-64 0 -121 -36 t-91 -103t-34 -153v-584h-172z" />
<glyph unicode="n" horiz-adv-x="907" d="M24 4v977h168v-135h4q116 168 334 168q326 0 326 -362v-648h-172v600q0 118 -35.5 197t-169.5 79q-98 -2 -156.5 -41t-85.5 -95t-34 -108t-7 -98v-534h-172z" />
<glyph unicode="o" horiz-adv-x="1011" d="M4 492q0 177 54.5 294.5t162 174.5t267.5 57q240 0 360 -130t120 -396q0 -132 -32 -230.5t-94 -162.5t-152 -95q-88 -32 -202 -32t-204 31t-152.5 96t-95 164t-32.5 229zM180 492q0 -200 80 -300q82 -100 228 -100q94 0 161.5 48t103 138t35.5 214t-39 214.5t-107 138.5 t-154 48q-88 0 -158.5 -43.5t-110 -133.5t-39.5 -224z" />
<glyph unicode="p" horiz-adv-x="993" d="M4 -350v1331h166v-131q40 66 123 117t203 51q151 0 251.5 -70t147.5 -189t47 -271q0 -104 -33 -220.5t-132 -206t-277 -89.5q-88 0 -162 33.5t-118 77t-44 67.5v-500h-172zM176 492q0 -110 38 -202.5t106 -145t151 -52.5q136 0 212.5 110t76.5 290q0 151 -45 240.5 t-113 125t-143 35.5q-138 0 -210.5 -107.5t-72.5 -293.5z" />
<glyph unicode="q" horiz-adv-x="993" d="M8 500q0 150 52.5 269t153 186t236.5 67l9 4q80 0 168.5 -36t156.5 -136h4l-4 127h162v-1331h-170v487q-62 -101 -153 -133t-169 -32q-216 0 -327 142q-111 144 -115 374zM188 492q0 -194 79 -303t208 -109l9 4q74 2 143 41t114 128t47 235v16q0 118 -35 208.5 t-102 139.5t-155 49h-8q-90 0 -158 -49.5t-105 -142.5t-37 -217z" />
<glyph unicode="r" horiz-adv-x="610" d="M12 4v977h164l-4 -189h8q104 206 346 206h42v-144h-64q-73 0 -144.5 -31t-123.5 -121q-52 -92 -52 -252v-446h-172z" />
<glyph unicode="s" horiz-adv-x="907" d="M20 289h172q0 -82 67 -141.5t191 -59.5l13 4q94 0 159.5 43t65.5 123v8q-3 70 -53.5 105.5t-155.5 58.5q-69 16 -109 20q-88 18 -154.5 46t-112 85.5t-45.5 151.5l2 7q0 56 25 115t109 108t244 51h12q138 0 223.5 -44t121 -109t35.5 -136h-158q0 66 -53 115.5t-177 52.5 h-12q-122 0 -161 -52.5t-39 -92.5l-4 -8q0 -108 149 -148q38 -11 133 -29q112 -22 183 -46.5t120 -82.5t49 -156v-12q0 -72 -37 -137t-127.5 -107t-236.5 -42h-29q-125 0 -217.5 42t-141.5 112.5t-51 154.5z" />
<glyph unicode="t" horiz-adv-x="614" d="M12 860v121h172v295h174v-295h210v-121h-210v-622q0 -2 -2 -8t-2 -9q0 -58 17 -89.5t75 -31.5h13q41 4 109 25v-121q-109 -24 -181 -24h-17q-76 0 -116.5 24.5t-55 72t-14.5 128.5v655h-172z" />
<glyph unicode="u" horiz-adv-x="907" d="M24 326v655h172v-598q0 -83 12.5 -141t58.5 -98q47 -40 139 -40q278 4 278 342v535h172v-977h-168l4 133h-8q-114 -157 -334 -157q-326 0 -326 346z" />
<glyph unicode="v" horiz-adv-x="973" d="M4 981h176l283 -809l277 809h186l-367 -977h-193z" />
<glyph unicode="w" horiz-adv-x="1460" d="M12 981h172l238 -785l204 785h166l206 -785l241 785h178l-319 -977h-176l-210 780l-208 -780h-178z" />
<glyph unicode="x" horiz-adv-x="993" d="M16 4l371 510l-350 467h193l249 -361l254 361h193l-346 -467l366 -510h-194l-273 402l-270 -402h-193z" />
<glyph unicode="y" horiz-adv-x="1011" d="M20 981h201l317 -793l258 793h170l-16 -39l-370 -1050q-43 -124 -97 -184q-53 -60 -165 -66h-29q-18 0 -54.5 4t-54.5 4v129q2 0 23 -4.5t39 -4.5h24q64 0 95 35t61 131l20 68z" />
<glyph unicode="z" horiz-adv-x="884" d="M20 4v117l588 739h-548v121h736v-121l-570 -735h600v-121h-806z" />
<glyph unicode="{" horiz-adv-x="530" d="M12 512v123q168 12 168 262v105q-4 37 -4 100q0 181 90 251.5t213 74.5v-101q-137 -32 -137 -184q0 -69 4 -101q4 -37 4 -112q0 -124 -49 -210t-172 -140v-17q123 -54 172 -138.5t49 -211.5q0 -77 -4 -113q-4 -33 -4 -96q0 -48 26.5 -104t110.5 -76v-102 q-122 4 -212.5 73.5t-90.5 245.5q0 65 4 101v104q0 245 -168 266z" />
<glyph unicode="|" horiz-adv-x="209" d="M4 -350v1914h158v-1914h-158z" />
<glyph unicode="}" horiz-adv-x="530" d="M12 -176q82 20 108 76.5t26 103.5q0 64 -4 96q-4 36 -5 113q0 126 48.5 211.5t172.5 138.5v17q-82 36 -131.5 87.5t-69.5 116t-20 146.5q1 76 5 112q4 32 4 101q0 52 -25 108.5t-109 75.5v101q120 -4 211 -75t91 -251q0 -20 -2 -50q-3 -30 -3 -50q-4 -35 -4 -105 q0 -85 33 -169.5t137 -92.5v-123q-103 -13 -136.5 -97.5t-33.5 -168.5q0 -70 4 -104q0 -20 2.5 -51t2.5 -50q0 -176 -91 -245.5t-211 -73.5v102z" />
<glyph unicode="~" horiz-adv-x="764" d="M16 1159q48 188 201 201q53 0 109 -20q46 -20 65 -30q69 -22 93 -22q27 0 52.5 21t35.5 47h128q-58 -209 -204 -209q-2 0 -8 -2t-9 -2q-12 0 -27.5 4.5t-34.5 12.5q-19 10 -26 12q-20 6 -39.5 12t-33.5 10q-46 20 -88 20q-58 0 -84 -55h-130z" />
<glyph unicode="&#xa1;" />
<glyph unicode="&#xa2;" horiz-adv-x="88" />
<glyph unicode="&#xa3;" />
<glyph unicode="&#xa4;" />
<glyph unicode="&#xa5;" />
<glyph unicode="&#xa6;" horiz-adv-x="209" d="M4 -350v1914h158v-1914h-158z" />
<glyph unicode="&#xa7;" d="M20 624q0 126 74 201t164 93q-54 28 -81 83t-27 117q0 2 2 10t2 10q4 78 38 138t102 94.5t169 34.5q124 0 194 -49.5t95 -119.5q24 -68 24 -142v-14h-145q0 106 -47.5 151t-112.5 45h-8q-38 0 -93.5 -27t-55.5 -111l4 -4q0 -61 36 -99.5t96 -68.5q24 -14 97 -40 q111 -44 186 -91.5t121.5 -122t46.5 -182.5q-3 -120 -71 -199t-166 -110q70 -20 93 -84.5t23 -120.5v-8q-6 -122 -71 -184.5t-137 -77.5q-72 -16 -130 -16q-134 0 -207 57.5t-96 132t-23 144.5h146q0 -2 -2 -7.5t-2 -7.5q0 -68 42 -129.5t142 -61.5h8q70 0 120 39t50 107 q-2 75 -47 108.5t-163 83.5q-44 20 -126 54q-256 114 -260 358q0 2 -2 8t-2 8zM184 604q0 -158 186 -238q78 -36 93 -44q11 -3 25 -8.5t27 -12t27 -12.5q82 24 139 88.5t57 160.5q-2 77 -45.5 130.5t-120 92.5t-202.5 85q-182 -62 -182 -230z" />
<glyph unicode="&#xa8;" horiz-adv-x="1036" d="M12 4v1352h961v-158h-781v-422h709v-156h-709v-462h802v-154h-982zM205 1497v149h182v-149h-182zM620 1497v149h181v-149h-181z" />
<glyph unicode="&#xa9;" horiz-adv-x="1439" d="M20 680q0 130 50.5 253t142.5 218.5t217.5 150t269.5 54.5q132 0 255 -50.5t218 -142t149 -215.5t54 -268q0 -134 -49.5 -256t-141.5 -217t-217 -149q-126 -54 -268 -54q-144 0 -269 54t-218 149.5t-143 218t-50 254.5zM150 680q0 -121 44 -227.5t122 -186t178 -122.5 q98 -44 206 -44q107 0 207.5 44t178 122.5t122 185t44.5 228.5t-44.5 227t-122 182.5t-177.5 120t-208 42.5t-207 -42t-177 -120t-122 -183.5t-44 -226.5zM383 692q0 134 74.5 242t242.5 108h8q138 0 199 -70t61 -155h-118q0 54 -37 91.5t-113 37.5q-28 0 -69 -14.5t-79 -70 t-38 -165.5q0 -2 2 -8t2 -8q0 -34 13 -92t55 -110t122 -52q80 2 113 50t35 100h129q-8 -94 -72 -168q-65 -74 -209 -74q-170 0 -241.5 106t-75.5 240q0 2 -2 6t-2 6z" />
<glyph unicode="&#xaa;" horiz-adv-x="88" />
<glyph unicode="&#xab;" horiz-adv-x="674" d="M4 446v162l289 256v-160l-205 -178l205 -172v-158zM342 446v158l284 250v-158l-196 -170l196 -176v-158z" />
<glyph unicode="&#xac;" />
<glyph unicode="&#xad;" horiz-adv-x="844" d="M146 434v166h514v-166h-514z" />
<glyph unicode="&#xae;" horiz-adv-x="1439" d="M20 680q0 142 55 266t151 216.5t219 143t255 50.5q144 0 269 -54t216 -150t141 -218t50 -254q0 -134 -49.5 -256t-141.5 -217t-217 -149q-126 -54 -268 -54q-131 0 -254 49t-219.5 141.5t-151.5 217t-55 268.5zM150 680q0 -121 44 -227.5t122 -186t178 -122.5 q98 -44 206 -44q107 0 207.5 44t178 122.5t122 185t44.5 228.5t-44.5 227t-122 182.5t-177.5 120t-208 42.5t-207 -42t-177 -120t-122 -183.5t-44 -226.5zM454 346v680h298q221 0 225 -184q0 -67 -31.5 -110.5t-85.5 -55.5v-4q70 -20 90 -88q8 -24 8 -76q0 -49 4 -74 q0 -48 6 -68q2 -2 7 -8l10 -12h-131q-20 30 -20 76q0 12 -2 37t-2 41q0 46 -8 71t-40.5 39t-101.5 14h-104v-278h-122zM576 721h145q125 1 125 109q0 64 -38 82t-100 18h-132v-209z" />
<glyph unicode="&#xaf;" horiz-adv-x="1460" d="M8 454v122h1409v-122h-1409z" />
<glyph unicode="&#xb0;" horiz-adv-x="88" />
<glyph unicode="&#xb1;" />
<glyph unicode="&#xb2;" />
<glyph unicode="&#xb3;" />
<glyph unicode="&#xb4;" />
<glyph unicode="&#xb5;" />
<glyph unicode="&#xb6;" horiz-adv-x="823" d="M16 1038q0 82 41 154t114.5 117t166.5 47h154v-1706h-154v1067q-94 4 -167 48.5t-114 117.5t-41 155zM620 -350v1706h152v-1706h-152z" />
<glyph unicode="&#xb7;" horiz-adv-x="401" d="M20 680q0 66 46 116t118 50q46 0 84 -23.5t60 -62t22 -80.5q0 -48 -23 -86t-61 -59t-82 -21q-68 0 -116 46.5t-48 119.5z" />
<glyph unicode="&#xb8;" horiz-adv-x="1011" d="M8 492q0 174 57.5 283t140.5 161t157.5 67t132.5 15h4q134 0 225 -48t142 -126t71 -169t20 -187v-38h-766q3 -81 30.5 -161.5t97 -139.5t188.5 -61l6 -4q78 0 134 30t87 75t41 95h170q-27 -130 -134.5 -218t-299.5 -90q-91 0 -197.5 27t-203.5 141t-99 344zM184 1180v176 h182v-176h-182zM192 576h584q-16 315 -276 321h-8q-120 0 -187 -59t-90 -131.5t-23 -130.5zM647 1180v176h179v-176h-179z" />
<glyph unicode="&#xb9;" horiz-adv-x="1941" d="M12 4v1352h188l13 -20l709 -1054v1074h172v-1352h-189l-16 16l-705 1055v-1071h-172zM1252 664q0 154 81 258t236 104q96 0 168 -46.5t110.5 -130t38.5 -185.5q0 -105 -38 -188t-110.5 -129t-168.5 -46q-151 0 -234 102.5t-83 260.5zM1272 4v138h592v-138h-592zM1396 664 q0 -116 49 -177t124 -65q73 0 121 64q49 64 49 178q0 106 -45 171.5t-125 65.5t-126.5 -66t-46.5 -171z" />
<glyph unicode="&#xba;" horiz-adv-x="88" />
<glyph unicode="&#xbb;" />
<glyph unicode="&#xbc;" />
<glyph unicode="&#xbd;" />
<glyph unicode="&#xbe;" />
<glyph unicode="&#xbf;" />
<glyph unicode="&#xc0;" horiz-adv-x="1270" d="M4 4l112 297l396 1055h200l114 -302l396 -1050h-196l-133 346h-575l-126 -346h-188zM370 508h476l-238 664z" />
<glyph unicode="&#xc1;" horiz-adv-x="1097" d="M4 4v1352h958v-158h-778v-402h416q108 0 208.5 -28t173 -117t72.5 -253v-2q0 -392 -454 -392h-596zM184 154h379q141 0 220 54t81 183v11q0 149 -99 195t-202 46h-379v-489z" />
<glyph unicode="&#xc2;" horiz-adv-x="1140" d="M24 4v1352h592q230 0 318 -102t88 -232v-12q-3 -106 -64.5 -186t-165.5 -103v-4q101 -15 195.5 -90.5t94.5 -247.5v-9q0 -164 -84 -245t-186 -101t-216 -20h-572zM205 154h375q126 0 219.5 42t93.5 200v2q0 128 -85 177q-84 49 -228 49h-375v-470zM205 780h363 q258 0 266 214v8q0 78 -57 139t-201 61h-371v-422z" />
<glyph unicode="&#xc3;" horiz-adv-x="907" d="M4 4v1352h860v-158h-680v-1194h-180z" />
<glyph unicode="&#xc4;" horiz-adv-x="1460" d="M8 154h125q69 90 116 189.5t76 210.5t44 241.5t18 279.5l9 281h818v-1202h191l-13 -451h-161v301h-1051v-301h-160zM346 154h688v1048h-471l-4 -168q-4 -196 -20.5 -338t-61.5 -277t-131 -265z" />
<glyph unicode="&#xc5;" horiz-adv-x="1036" d="M12 4v1352h961v-158h-781v-422h709v-156h-709v-462h802v-154h-982z" />
<glyph unicode="&#xc6;" horiz-adv-x="1816" d="M4 4l620 725l-600 627h218l554 -600l-4 600h181l-7 -600l560 600h217l-600 -627l627 -725h-222l-582 680l7 -680h-181l4 680l-575 -680h-217z" />
<glyph unicode="&#xc7;" horiz-adv-x="1161" d="M8 418h184q0 -110 84 -208t287 -98l13 4q180 0 261 77t85 190v13q0 60 -27 114t-96 89.5t-187 35.5h-178v153h162q268 0 268 218q-2 143 -107 186t-206 43q-181 0 -255.5 -79.5t-78.5 -178.5h-176q2 100 48.5 193.5t159.5 155.5t302 62h12q176 -2 285.5 -51.5t157.5 -132 t48 -186.5q0 -145 -73 -210t-160 -83v-8q62 -8 129 -43.5t115.5 -108.5t48.5 -186v-13q-12 -382 -526 -399q-233 0 -398.5 91.5t-181.5 359.5z" />
<glyph unicode="&#xc8;" horiz-adv-x="1140" d="M12 4v1352h180v-1090l25 35l697 1055h180v-1352h-180v1094l-30 -44l-692 -1050h-180z" />
<glyph unicode="&#xc9;" horiz-adv-x="1140" d="M12 4v1352h180v-1090l25 35l697 1055h180v-1352h-180v1094l-30 -44l-692 -1050h-180zM217 1665h145q21 -155 189 -155q104 0 145.5 49t43.5 106h144q-18 -104 -97 -180t-236 -76q-156 0 -236 74t-98 182z" />
<glyph unicode="&#xca;" horiz-adv-x="1102" d="M4 4v1352h180l-4 -618l612 618h226l-648 -627l689 -725h-242l-637 704l4 -704h-180z" />
<glyph unicode="&#xcb;" horiz-adv-x="1245" d="M16 4v154q10 0 24 -2q16 -2 20 -2q158 0 218 172t64 446l16 584h836v-1352h-180v1198h-488l-12 -469q-4 -733 -426 -733q-10 0 -35 2t-37 2z" />
<glyph unicode="&#xcc;" horiz-adv-x="1415" d="M12 4v1352h254l23 -64l403 -1054l25 63l397 1055h258v-1352h-170v1082l4 48h-4l-30 -80l-412 -1050h-144l-32 76l-408 1054h-6l6 -48v-1082h-164z" />
<glyph unicode="&#xcd;" horiz-adv-x="1102" d="M4 4v1352h180v-568h680v568h182v-1352h-182v631h-680v-631h-180z" />
<glyph unicode="&#xce;" horiz-adv-x="1349" d="M4 668l4 12q2 150 40 278.5t117 227.5t202 154.5t289 55.5q160 0 282 -53t203 -150t121 -227t42 -286v-12q0 -212 -74 -371t-220.5 -244.5t-353.5 -85.5q-211 0 -358.5 89t-220.5 247.5t-73 364.5zM196 664q0 -142 44 -267t147 -205t269 -80q280 0 367 187t87 381 q-2 162 -44 273.5t-109 175t-144 89t-157 25.5q-106 0 -207 -47t-173 -172.5t-76 -343.5q0 -2 -2 -8t-2 -8z" />
<glyph unicode="&#xcf;" horiz-adv-x="1102" d="M4 4v1352h1046v-1352h-182v1198h-684v-1198h-180z" />
<glyph unicode="&#xd0;" horiz-adv-x="1077" d="M12 4v1352h547q454 0 463 -390v-12q0 -412 -480 -412h-350v-538h-180zM192 696h330q97 0 164.5 23t105.5 77.5t38 145.5v20q-3 132 -81.5 186t-226.5 54h-330v-506z" />
<glyph unicode="&#xd1;" horiz-adv-x="1290" d="M4 676q0 243 79 393.5t191 219t206 86t167 17.5h9q202 0 324.5 -72t173.5 -175q50 -103 56 -207h-184q-8 118 -94.5 209.5t-284.5 91.5q-72 0 -171 -31.5t-189.5 -152.5t-90.5 -359q0 -4 2 -16t2 -16q4 -158 60 -284t158 -197q104 -71 242 -71q178 3 273 101.5t109 232.5 h189q-13 -109 -68 -215.5t-180 -184t-327 -79.5q-201 0 -346.5 82.5t-221.5 236.5t-80 366q0 2 -2 12t-2 12z" />
<glyph unicode="&#xd2;" horiz-adv-x="1120" d="M20 1198v158h1060v-158h-445v-1194h-181v1194h-434z" />
<glyph unicode="&#xd3;" horiz-adv-x="1181" d="M4 1356h222l386 -818l326 818h188l-24 -60l-430 -1054q-63 -152 -140.5 -203t-177.5 -51h-24q-86 0 -154 16v154q63 -20 125 -21q70 0 124.5 39.5t92.5 161.5z" />
<glyph unicode="&#xd4;" horiz-adv-x="1628" d="M20 692q2 145 61 265.5t196 195t358 74.5h73v205h185v-205h75q170 0 289 -44.5t189 -119t102 -170t33 -201.5q0 -155 -64.5 -277t-202.5 -191q-138 -70 -346 -70h-75v-199h-185v199h-73q-209 0 -347 69.5t-203 191t-65 277.5zM209 692q1 -399 451 -399h48v789h-48 q-100 0 -197 -22.5t-175.5 -109t-78.5 -258.5zM893 293h53q66 0 135 10t142 49.5t121 122t48 217.5q0 172 -78.5 258.5t-174 109t-193.5 22.5h-53v-789z" />
<glyph unicode="&#xd5;" horiz-adv-x="1222" d="M4 4l467 692l-443 660h226l338 -535l342 535h213l-443 -656l472 -696h-230l-358 559l-354 -559h-230z" />
<glyph unicode="&#xd6;" horiz-adv-x="1290" d="M4 4v1352h180v-1202h688v1202h182v-1202h189l-16 -451h-156v301h-1067z" />
<glyph unicode="&#xd7;" horiz-adv-x="1016" d="M20 930v426h180v-398q0 -102 33.5 -151t100 -63.5t192.5 -14.5q222 9 266 15v612h181v-1352h-181v584q-222 -12 -300 -12q-131 0 -220.5 17t-144.5 56.5t-81 107.5t-26 173z" />
<glyph unicode="&#xd8;" horiz-adv-x="1708" d="M20 4v1352h172v-1202h546v1202h180v-1202h546v1202h188v-1352h-1632z" />
<glyph unicode="&#xd9;" horiz-adv-x="1902" d="M12 4v1352h172v-1202h545v1202h181v-1202h546v1202h190v-1202h197l-16 -451h-158v301h-1657z" />
<glyph unicode="&#xda;" horiz-adv-x="1374" d="M20 1198v158h476v-555h388q106 0 190 -28.5t140 -81.5t84.5 -126t28.5 -159v-8q0 -102 -40.5 -190.5t-138.5 -145.5q-100 -58 -264 -58h-575v1194h-289zM496 154h368q53 0 113.5 16.5t108.5 72t48 159.5q0 246 -292 245h-346v-493z" />
<glyph unicode="&#xdb;" horiz-adv-x="1390" d="M12 4v1352h180v-555h388q144 0 245 -50.5t151 -141.5t50 -211q-2 -102 -43 -190.5t-140 -146t-263 -57.5h-568zM192 154h367q52 0 112.5 16.5t111.5 72t55 159.5q0 246 -304 245h-342v-493zM1159 4v1352h185v-1352h-185z" />
<glyph unicode="&#xdc;" horiz-adv-x="1077" d="M12 4v1352h180v-555h388q144 0 245 -50.5t151 -141.5t50 -211q-2 -102 -43 -190.5t-140 -146t-263 -57.5h-568zM192 154h367q52 0 112.5 16.5t111.5 72t55 159.5q0 246 -304 245h-342v-493z" />
<glyph unicode="&#xdd;" horiz-adv-x="1310" d="M16 471h189q17 -134 109 -247q92 -114 298 -116q158 0 294 100t140 412h-640v152l640 4q-5 108 -41 212t-131.5 179.5t-261.5 75.5q-122 0 -206 -40.5t-128.5 -105.5t-56.5 -139h-184q12 112 70.5 211t182 163t314.5 64h4q252 0 396 -115t196 -274t52 -315v-28 q0 -234 -73 -380t-178 -214t-204 -87.5t-185 -19.5h-12q-202 0 -330 80.5t-186 196.5t-68 231z" />
<glyph unicode="&#xde;" horiz-adv-x="1732" d="M4 4v1352h180v-568h203q6 108 43.5 213.5t113 195.5t196.5 144.5t286 54.5q158 0 280 -53t203 -150t122 -227t42 -286v-12q0 -214 -75 -372t-221.5 -243.5t-350.5 -85.5q-202 0 -332.5 72.5t-197 180.5t-90 215t-27.5 200h-195v-631h-180zM568 664q0 -142 43 -267 t146 -205t269 -80q278 0 364 187t86 381q-2 162 -43 273t-108 175t-143 89.5t-156 25.5q-106 0 -207 -47.5t-173 -173.5q-70 -126 -74 -342q0 -2 -2 -8t-2 -8z" />
<glyph unicode="&#xdf;" horiz-adv-x="1097" d="M8 950q0 406 467 406h579v-1352h-182v534h-304l-334 -534h-222l367 551q-144 14 -257.5 100.5t-113.5 294.5zM196 946q0 -254 322 -254h354v510h-376q-111 0 -205.5 -50.5t-94.5 -205.5z" />
<glyph unicode="&#xe0;" horiz-adv-x="1011" d="M20 258q0 117 64 181.5t166 90.5q102 28 254 42q31 0 96 8q60 12 76 36q16 22 16 92q0 184 -217 185q-150 0 -204 -57.5t-54 -123.5q0 -2 2 -8t2 -8h-172q0 48 18.5 102t65.5 104.5t132 83t214 32.5q385 0 385 -326v-458q0 -6 -2 -18t-2 -16q0 -80 66 -79q2 0 15 2t17 2 v-121q-7 0 -35.5 -2t-42.5 -2h-20q-58 0 -107 29t-49 104q-68 -97 -170 -129t-168 -32q-125 0 -202 39t-110.5 103t-33.5 144zM192 262q0 -72 50 -121t145 -49q108 0 176.5 48t98.5 123t30 155v90q-16 -21 -57 -33q-37 -8 -72 -8q-56 -7 -131 -17t-126 -28.5t-82.5 -57 t-31.5 -102.5z" />
<glyph unicode="&#xe1;" horiz-adv-x="1032" d="M8 624q0 173 26.5 300t82 212.5t142.5 132.5t212 62q18 2 71.5 8.5t77.5 8.5q50 0 97 30t47 39v5h146q-1 -23 -17.5 -70t-75.5 -95.5t-174 -54.5q-59 -6 -123 -16q-64 -8 -102 -14q-126 -26 -190 -116.5t-79.5 -172t-15.5 -119.5h4q18 52 66 102t127.5 82.5t183.5 32.5 q179 0 283.5 -74.5t144 -188.5t39.5 -247q0 -145 -53.5 -257.5t-161.5 -177t-262 -64.5q-90 0 -174.5 26t-158 97t-118.5 202t-45 327zM180 471q0 -91 33 -178t106 -144t185 -57q111 0 179 54t97 139t29 186q0 204 -82.5 296.5t-226.5 92.5q-82 0 -154 -34.5t-119 -121 t-47 -233.5z" />
<glyph unicode="&#xe2;" horiz-adv-x="889" d="M12 4v977h472q170 0 241 -65t71 -187q0 -64 -34 -111.5t-78 -73.5q-46 -26 -68 -26v-4q27 0 78.5 -24t93.5 -79t42 -141q0 -157 -94 -211.5t-257 -54.5h-467zM184 116h250q222 0 222 154q0 92 -47 138t-179 46h-246v-338zM184 572h238q202 0 202 157q0 64 -48 101.5 t-146 37.5h-246v-296z" />
<glyph unicode="&#xe3;" horiz-adv-x="739" d="M12 4v977h676v-113h-504v-864h-172z" />
<glyph unicode="&#xe4;" horiz-adv-x="1245" d="M24 116h126q40 60 74 151t55.5 211t21.5 251v252h717v-865h174v-366h-174v254h-822v-254h-172v366zM322 116h520v752h-367v-139q0 -218 -51.5 -377.5t-101.5 -235.5z" />
<glyph unicode="&#xe5;" horiz-adv-x="1011" d="M12 488q0 195 70 313.5t179 167.5t235 49q149 0 243.5 -51t141.5 -133t62 -175t15 -205h-766q0 -82 30 -165t101 -140t185 -57q95 0 155.5 38.5t86.5 85t26 68.5h182q0 -44 -48.5 -120t-149 -134t-248.5 -58q-115 0 -207 32t-157.5 97t-100.5 162t-35 225zM192 572h584 q0 86 -31 159t-93 117.5t-152 44.5q-106 0 -176 -48.5t-101 -121.5t-31 -151z" />
<glyph unicode="&#xe6;" horiz-adv-x="1415" d="M12 4l442 514l-426 463h206l370 -443v443h172v-443l371 443h209l-430 -463l446 -514h-208l-388 480v-480h-172v480l-387 -480h-205z" />
<glyph unicode="&#xe7;" horiz-adv-x="927" d="M8 297h180q0 -92 73 -148.5t181 -56.5q142 0 200 52t58 130q0 176 -221 176h-145v118h129q98 0 149.5 35t51.5 122q0 80 -58 124t-168 44q-124 0 -168 -57.5t-44 -123.5h-181q0 56 27 124.5t117 125.5q89 56 261 56q116 0 206 -32t140 -96t50 -152q0 -81 -36 -129.5 t-78 -67.5t-60 -19v-8q27 0 76 -19.5t90.5 -73t41.5 -147.5q0 -167 -121 -234.5t-296 -67.5q-143 0 -246 43.5t-156 117.5t-53 164z" />
<glyph unicode="&#xe8;" horiz-adv-x="932" d="M4 4v977h172v-781l512 781h201v-977h-177v780l-512 -780h-196z" />
<glyph unicode="&#xe9;" horiz-adv-x="932" d="M4 4v977h172v-781l512 781h196v-977h-172v780l-512 -780h-196zM104 1356h146q4 -56 46 -105q40 -49 142 -49q104 0 145 50t43 104h146q-12 -66 -49 -124t-108 -96t-177 -38t-177 38t-108 96t-49 124z" />
<glyph unicode="&#xea;" horiz-adv-x="889" d="M24 4v977h172v-439l443 439h207l-492 -455l492 -522h-207l-443 484v-484h-172z" />
<glyph unicode="&#xeb;" horiz-adv-x="993" d="M12 4v121q8 0 22 -4.5t19 -4.5q86 0 129.5 70t55.5 175t12 251v369h692v-977h-174v868h-346v-260q-3 -193 -25 -320t-94.5 -209.5t-214.5 -82.5q-48 0 -76 4z" />
<glyph unicode="&#xec;" horiz-adv-x="1222" d="M20 4v977h238l338 -797l338 797h234v-977h-174v734l4 50h-4l-330 -784h-142l-330 784h-4l4 -50v-734h-172z" />
<glyph unicode="&#xed;" horiz-adv-x="907" d="M24 4v977h172v-401h488v401h172v-977h-172v459h-488v-459h-172z" />
<glyph unicode="&#xee;" horiz-adv-x="1011" d="M4 492q0 177 54.5 294.5t162 174.5t267.5 57q240 0 360 -130t120 -396q0 -132 -32 -230.5t-94 -162.5t-152 -95q-88 -32 -202 -32t-204 31t-152.5 96t-95 164t-32.5 229zM180 492q0 -200 80 -300q82 -100 228 -100q94 0 161.5 48t103 138t35.5 214t-39 214.5t-107 138.5 t-154 48q-88 0 -158.5 -43.5t-110 -133.5t-39.5 -224z" />
<glyph unicode="&#xef;" horiz-adv-x="932" d="M24 4v977h844v-977h-172v864h-500v-864h-172z" />
<glyph unicode="&#xf0;" horiz-adv-x="993" d="M4 -350v1331h166v-131q40 66 123 117t203 51q151 0 251.5 -70t147.5 -189t47 -271q0 -104 -33 -220.5t-132 -206t-277 -89.5q-88 0 -162 33.5t-118 77t-44 67.5v-500h-172zM176 492q0 -110 38 -202.5t106 -145t151 -52.5q136 0 212.5 110t76.5 290q0 151 -45 240.5 t-113 125t-143 35.5q-138 0 -210.5 -107.5t-72.5 -293.5z" />
<glyph unicode="&#xf1;" horiz-adv-x="973" d="M12 504q0 126 32 222.5t94 162t148 97.5q88 32 198 32q122 0 206.5 -40t131.5 -97t67.5 -112.5t20.5 -88.5h-162q0 32 -25 82t-84 90.5t-155 40.5q-134 0 -215 -96.5t-81 -292.5q0 -128 39 -221.5t108 -142t157 -48.5q92 0 149.5 42t84 101.5t34.5 118.5h162 q-8 -74 -48 -160.5t-133 -154t-249 -67.5q-235 0 -357.5 137t-122.5 395z" />
<glyph unicode="&#xf2;" horiz-adv-x="932" d="M20 868v113h848v-113h-338v-864h-172v864h-338z" />
<glyph unicode="&#xf3;" horiz-adv-x="1011" d="M20 981h201l317 -793l258 793h170l-16 -39l-370 -1050q-43 -124 -97 -184q-53 -60 -165 -66h-29q-18 0 -54.5 4t-54.5 4v129q2 0 23 -4.5t39 -4.5h24q64 0 95 35t61 131l20 68z" />
<glyph unicode="&#xf4;" horiz-adv-x="1439" d="M12 500q0 156 61 271t195 179t344 64v342h172v-342q208 0 340 -64t192 -179t60 -271q0 -226 -135 -373t-457 -147v-330h-172v330q-324 0 -462 148t-138 372zM192 492q0 -82 22 -152t71 -124t132 -85t203 -31v789q-248 0 -338 -112.5t-90 -284.5zM776 100q150 0 244 57 t134 147q40 92 40 196q0 164 -85 276.5t-333 112.5v-789z" />
<glyph unicode="&#xf5;" horiz-adv-x="993" d="M16 4l371 510l-350 467h193l249 -361l254 361h193l-346 -467l366 -510h-194l-273 402l-270 -402h-193z" />
<glyph unicode="&#xf6;" horiz-adv-x="1057" d="M4 4v977h172v-865h492v865h174v-865h172v-366h-172v254h-838z" />
<glyph unicode="&#xf7;" horiz-adv-x="823" d="M12 684v297h172v-297q0 -10 -2 -27t-2 -22q0 -40 14.5 -64t61.5 -37q48 -12 142 -12q198 0 206 8v451h172v-977h-172v402q-30 0 -112 -2t-117 -2q-2 0 -8.5 -2t-8.5 -2q-140 0 -216 35t-103 97t-27 154z" />
<glyph unicode="&#xf8;" horiz-adv-x="1415" d="M24 4v977h172v-865h412v865h172v-865h408v865h172v-977h-1336z" />
<glyph unicode="&#xf9;" horiz-adv-x="1564" d="M12 4v977h172v-865h412v865h172v-865h408v865h172v-865h174v-366h-174v254h-1336z" />
<glyph unicode="&#xfa;" horiz-adv-x="1140" d="M20 868v113h422v-389h296q136 0 212.5 -40t104 -102.5t27.5 -144.5q0 -108 -44 -175t-119 -96.5t-171 -29.5h-478v864h-250zM442 116h205q124 0 189 38.5t65 134.5q0 110 -63.5 148t-190.5 38h-205v-359z" />
<glyph unicode="&#xfb;" horiz-adv-x="1181" d="M12 4v977h172v-389h320q129 0 225.5 -64t96.5 -223q0 -175 -101 -238t-233 -63h-480zM184 116h238q104 0 167 41.5t63 131.5q0 116 -70 151q-68 35 -186 35h-212v-359zM950 4v977h172v-977h-172z" />
<glyph unicode="&#xfc;" horiz-adv-x="868" d="M4 4v977h172v-389h328q74 0 146 -25t121.5 -86t49.5 -163q1 -314 -337 -314h-480zM176 116h238q226 0 225 185q0 174 -213 174h-250v-359z" />
<glyph unicode="&#xfd;" horiz-adv-x="973" d="M20 346h160q0 -48 25 -107t89 -103t173 -44q80 0 143.5 35.5t102.5 116.5q39 80 39 206h-422v118h422q0 146 -69 235.5t-224 89.5q-103 0 -164 -41.5t-84 -92.5t-23 -83h-155q0 38 17 93.5t62.5 113t131.5 96.5t215 39q147 0 253 -58.5t162 -178.5q56 -119 56 -297 q0 -126 -32.5 -223t-93 -161t-145.5 -96t-192 -32q-145 0 -246 53t-151 139t-50 182z" />
<glyph unicode="&#xfe;" horiz-adv-x="1349" d="M12 4v977h172v-405h162q0 60 23 134.5t77.5 146t148.5 118.5t226 47q162 0 270.5 -71t160.5 -191t52 -268q0 -160 -55.5 -278.5t-164.5 -182.5t-263 -64q-144 0 -251.5 63.5t-165.5 176.5t-58 252h-162v-455h-172zM522 492q0 -120 33 -213.5t100.5 -146t165.5 -52.5 q94 0 161.5 49t103.5 142t36 221q0 410 -301 409q-146 0 -222.5 -105t-76.5 -304z" />
<glyph unicode="&#xff;" horiz-adv-x="889" d="M20 4l264 387q-69 3 -129.5 37t-97.5 97t-37 151q0 126 75 215.5t251 89.5h496v-977h-174v383h-201l-267 -383h-180zM192 680q0 -108 65 -142t169 -34h242v364h-250q-96 0 -161 -45t-65 -143z" />
<glyph unicode="&#x152;" />
<glyph unicode="&#x153;" />
<glyph unicode="&#x178;" horiz-adv-x="889" d="M20 4l264 387q-69 3 -129.5 37t-97.5 97t-37 151q0 126 75 215.5t251 89.5h496v-977h-174v383h-201l-267 -383h-180zM192 680q0 -108 65 -142t169 -34h242v364h-250q-96 0 -161 -45t-65 -143z" />
<glyph unicode="&#x2c6;" horiz-adv-x="803" d="M4 1090l196 266h355l201 -266h-144l-233 198l-229 -198h-146z" />
<glyph unicode="&#x2dc;" horiz-adv-x="764" d="M16 1159q48 188 201 201q53 0 109 -20q46 -20 65 -30q69 -22 93 -22q27 0 52.5 21t35.5 47h128q-58 -209 -204 -209q-2 0 -8 -2t-9 -2q-12 0 -27.5 4.5t-34.5 12.5q-19 10 -26 12q-20 6 -39.5 12t-33.5 10q-46 20 -88 20q-58 0 -84 -55h-130z" />
<glyph unicode="&#x2000;" horiz-adv-x="832" />
<glyph unicode="&#x2001;" horiz-adv-x="1665" />
<glyph unicode="&#x2002;" horiz-adv-x="832" />
<glyph unicode="&#x2003;" horiz-adv-x="1665" />
<glyph unicode="&#x2004;" horiz-adv-x="555" />
<glyph unicode="&#x2005;" horiz-adv-x="416" />
<glyph unicode="&#x2006;" horiz-adv-x="277" />
<glyph unicode="&#x2007;" horiz-adv-x="277" />
<glyph unicode="&#x2008;" horiz-adv-x="208" />
<glyph unicode="&#x2009;" horiz-adv-x="333" />
<glyph unicode="&#x200a;" horiz-adv-x="92" />
<glyph unicode="&#x2010;" horiz-adv-x="844" d="M146 434v166h514v-166h-514z" />
<glyph unicode="&#x2011;" horiz-adv-x="844" d="M146 434v166h514v-166h-514z" />
<glyph unicode="&#x2012;" horiz-adv-x="844" d="M146 434v166h514v-166h-514z" />
<glyph unicode="&#x2013;" />
<glyph unicode="&#x2014;" />
<glyph unicode="&#x2018;" horiz-adv-x="635" d="M196 856v106q61 12 79 58t18 110v13h-97v213h195v-226q0 -93 -34 -169q-35 -76 -161 -105z" />
<glyph unicode="&#x2019;" horiz-adv-x="635" d="M196 856v106q61 12 79 58t18 110v13h-97v213h195v-226q0 -93 -34 -169q-35 -76 -161 -105z" />
<glyph unicode="&#x201a;" />
<glyph unicode="&#x201c;" horiz-adv-x="594" d="M16 1122q0 232 197 270v-104q-64 -13 -80.5 -58t-16.5 -116v-8h97v-213h-193v221zM338 893v221q0 98 34 175t162 103v-104q-63 -13 -81.5 -59.5t-18.5 -114.5v-8h100v-213h-196z" />
<glyph unicode="&#x201d;" horiz-adv-x="594" d="M20 856v106q63 12 79.5 57t16.5 111v13h-96v213h193v-238q0 -89 -34.5 -162.5t-158.5 -99.5zM338 856v106q64 12 82 58t18 110v13h-100v213h196v-226q0 -93 -34 -169t-162 -105z" />
<glyph unicode="&#x201e;" />
<glyph unicode="&#x2022;" horiz-adv-x="594" d="M20 4v209h193v-209q0 -102 -20 -154t-55.5 -75t-117.5 -53v102q24 12 41 20t30 24t19 48t6 88h-96zM338 4v209h192v-209q0 -102 -20 -154t-55.5 -75t-116.5 -53v102l42 21t29.5 24t18 47t6.5 88h-96z" />
<glyph unicode="&#x2026;" />
<glyph unicode="&#x202f;" horiz-adv-x="333" />
<glyph unicode="&#x2039;" horiz-adv-x="1310" d="M108 604v121l930 535l68 -122l-824 -474l824 -476l-68 -120z" />
<glyph unicode="&#x203a;" horiz-adv-x="1310" d="M154 188l831 476l-831 474l72 122l929 -535v-121l-929 -536z" />
<glyph unicode="&#x205f;" horiz-adv-x="416" />
<glyph unicode="&#x2122;" />
<glyph unicode="&#x25fc;" horiz-adv-x="980" d="M0 0v980h980v-980h-980z" />
</font>
</defs>
</svg>
